<svg xmlns="http://www.w3.org/2000/svg" width="22.533" height="22.543" viewBox="0 0 22.533 22.543">
  <g id="Group_291" data-name="Group 291" transform="translate(17157.436 -5213)">
    <rect id="Rectangle_123" data-name="Rectangle 123" width="4.652" height="15.029" transform="translate(-17156.988 5220.514)" fill="#6b6b6b"/>
    <path id="Path_350" data-name="Path 350" d="M774.542,5.547a2.773,2.773,0,1,1,2.751-2.774,2.763,2.763,0,0,1-2.751,2.774" transform="translate(-17929.227 5213)" fill="#6b6b6b"/>
    <path id="Path_351" data-name="Path 351" d="M867.283,86.31h-4.631V78.421c0-2.163-.822-3.371-2.532-3.371-1.862,0-2.835,1.259-2.835,3.371V86.31h-4.463V71.281h4.463v2.025a5.24,5.24,0,0,1,4.529-2.483c3.187,0,5.469,1.946,5.469,5.971Z" transform="translate(-18002.186 5149.233)" fill="#6b6b6b"/>
  </g>
</svg>
