<svg xmlns="http://www.w3.org/2000/svg" xmlns:xlink="http://www.w3.org/1999/xlink" width="32.781" height="29.499" viewBox="0 0 32.781 29.499">
  <defs>
    <clipPath id="clip-path">
      <rect id="Rectangle_3427" data-name="Rectangle 3427" width="32.781" height="29.499" fill="#fff"/>
    </clipPath>
  </defs>
  <g id="Group_10508" data-name="Group 10508" transform="translate(0 0)">
    <g id="Group_10095" data-name="Group 10095" transform="translate(0 0)" clip-path="url(#clip-path)">
      <path id="Path_27157" data-name="Path 27157" d="M32.3,13.59,19.189.478a1.644,1.644,0,0,0-2.8,1.16V7.451A18.042,18.042,0,0,0,0,25.4v2.458a1.642,1.642,0,0,0,2.928,1.016,18.729,18.729,0,0,1,12.924-6.632c.076-.017.282-.026.538-.044v5.66a1.644,1.644,0,0,0,2.8,1.16L32.3,15.911a1.642,1.642,0,0,0,0-2.321M19.667,23.909V20.487a1.64,1.64,0,0,0-1.639-1.639c-.417,0-2.126.085-2.561.138a23.044,23.044,0,0,0-12.1,4.829A14.777,14.777,0,0,1,18.029,10.653a1.64,1.64,0,0,0,1.639-1.639V5.592l9.158,9.158Z" transform="translate(0 -0.001)" fill="#fff"/>
    </g>
  </g>
</svg>
